<svg width="100" height="100" fill="none" xmlns="http://www.w3.org/2000/svg"><circle cx="50" cy="50" r="50" fill="#252525"/><g clip-path="url(#clip0_524_2)" fill="#fff"><path d="M66.386 50.445a.879.879 0 00.879-.876V49.5a.879.879 0 10-1.758 0v.063c-.002.485.39.88.875.882h.004z"/><path d="M65.41 33.59C61.16 29.34 55.51 27 49.5 27a.879.879 0 00-.879.879v4.735c0 .485.393.879.879.879a15.992 15.992 0 0115.511 12.035.878.878 0 101.703-.434A17.747 17.747 0 0050.38 31.755v-2.98c11.03.462 19.863 9.582 19.863 20.724 0 11.438-9.305 20.742-20.742 20.742-11.438 0-20.742-9.305-20.742-20.742 0-5.54 2.157-10.75 6.075-14.667a.879.879 0 000-1.243l-.086-.086h3.855v3.854l-.421-.42a.879.879 0 00-1.243 0A17.65 17.65 0 0031.735 49.5c0 9.796 7.97 17.765 17.765 17.765 8.056 0 15.12-5.433 17.176-13.212a.879.879 0 00-1.7-.45c-1.853 7.01-8.217 11.904-15.476 11.904-8.827 0-16.007-7.18-16.007-16.007 0-3.981 1.444-7.74 4.083-10.68l1.283 1.282a.88.88 0 001.5-.621v-6.856a.879.879 0 00-.879-.879h-6.855a.88.88 0 00-.621 1.5l.976.977C29.117 38.394 27 43.785 27 49.5c0 6.01 2.34 11.66 6.59 15.91S43.49 72 49.5 72s11.66-2.34 15.91-6.59S72 55.51 72 49.5s-2.34-11.66-6.59-15.91z"/><path d="M43.304 60.926h12.392c1.22 0 2.212-.992 2.212-2.212v-.85a2.216 2.216 0 00-1.73-2.158 8.918 8.918 0 00-3.349-6.206 8.918 8.918 0 003.348-6.206 2.215 2.215 0 001.731-2.158v-.85c0-1.22-.992-2.212-2.212-2.212h-2.724a.879.879 0 100 1.758h2.724c.25 0 .455.204.455.454v.85c0 .25-.204.454-.455.454H43.304a.455.455 0 01-.454-.454v-.85c0-.25.203-.454.454-.454h2.724a.879.879 0 100-1.758h-2.724c-1.22 0-2.212.992-2.212 2.212v.85c0 1.054.742 1.938 1.73 2.158a8.919 8.919 0 003.349 6.206 8.919 8.919 0 00-3.348 6.206 2.215 2.215 0 00-1.731 2.158v.85c0 1.22.992 2.212 2.212 2.212zm12.847-2.212c0 .25-.204.454-.455.454H43.304a.455.455 0 01-.454-.454v-.85c0-.25.203-.454.454-.454h12.392c.251 0 .455.204.455.454v.85zm-7.977-8.449a.879.879 0 000-1.53 7.151 7.151 0 01-3.579-5.387h9.81a7.151 7.151 0 01-3.58 5.387.88.88 0 000 1.53 7.151 7.151 0 013.58 5.387h-9.81a7.151 7.151 0 013.58-5.387z"/><path d="M50.121 39.575a.886.886 0 00.258-.622.886.886 0 00-.258-.621.886.886 0 00-.621-.258.886.886 0 00-.621.258.886.886 0 00-.258.621.882.882 0 00.879.879.885.885 0 00.621-.258z"/></g><defs><clipPath id="clip0_524_2"><path fill="#fff" transform="translate(27 27)" d="M0 0h45v45H0z"/></clipPath></defs></svg>