<svg width="100" height="100" fill="none" xmlns="http://www.w3.org/2000/svg"><circle cx="50" cy="50" r="50" fill="#252525"/><g clip-path="url(#clip0_524_3)" fill="#fff"><path d="M36.404 43.7c0 7.269 5.914 13.183 13.184 13.183s13.184-5.914 13.184-13.184-5.915-13.183-13.184-13.183c-7.27 0-13.184 5.914-13.184 13.183zm13.184-11.427c6.3 0 11.426 5.126 11.426 11.426s-5.126 11.426-11.426 11.426S38.162 50 38.162 43.699c0-6.3 5.126-11.426 11.426-11.426z"/><path d="M41.448 42.132l3.407 3.357-.784 4.718a.879.879 0 001.272.924l4.245-2.204 4.244 2.204a.879.879 0 001.272-.924l-.784-4.718 3.407-3.357a.878.878 0 00-.486-1.495l-4.728-.712-2.14-4.278a.879.879 0 00-1.572 0l-2.139 4.278-4.728.712a.88.88 0 00-.486 1.495zm5.927-.536a.88.88 0 00.656-.476l1.557-3.114 1.557 3.114a.88.88 0 00.655.476l3.441.518-2.48 2.443a.88.88 0 00-.25.77l.57 3.434-3.089-1.605a.877.877 0 00-.81 0l-3.089 1.605.57-3.434a.878.878 0 00-.25-.77l-2.479-2.443 3.441-.518zm3.092-13.717a.879.879 0 11-1.758 0 .879.879 0 011.758 0z"/><path d="M45.446 27.518A16.684 16.684 0 0032.889 43.7a16.65 16.65 0 005.497 12.383l-5.295 9.332a.88.88 0 00.943 1.294l6.013-1.249 2.114 5.956a.879.879 0 001.592.14l5.835-10.258 5.835 10.258a.878.878 0 001.592-.14l2.113-5.956 6.013 1.249a.88.88 0 00.944-1.294l-5.295-9.332A16.647 16.647 0 0066.287 43.7c0-7.64-5.164-14.294-12.557-16.18a.879.879 0 10-.435 1.702A14.927 14.927 0 0164.53 43.7c0 8.32-6.757 14.942-14.941 14.942-8.19 0-14.941-6.627-14.941-14.942 0-6.836 4.619-12.79 11.233-14.478a.88.88 0 00-.434-1.703zm-2.271 41.498l-1.727-4.867a.879.879 0 00-1.007-.567l-4.863 1.01 4.19-7.385a16.735 16.735 0 008.346 3.126l-4.939 8.683zm15.56-5.434a.88.88 0 00-1.007.567L56 69.016l-4.94-8.683a16.737 16.737 0 008.346-3.126l4.19 7.385-4.862-1.01z"/></g><defs><clipPath id="clip0_524_3"><path fill="#fff" transform="translate(27 27)" d="M0 0h45v45H0z"/></clipPath></defs></svg>