<svg width="100" height="100" fill="none" xmlns="http://www.w3.org/2000/svg"><circle cx="50" cy="50" r="50" fill="#252525"/><path d="M71.121 48.851h-5.205c-.486 0-.88.411-.88.918v.776h-5.473a.844.844 0 00-.336.07l-7.011 3.03a3.322 3.322 0 00-1.775 1.86 3.53 3.53 0 00.015 2.626l.023.059c.204.501.503.928.867 1.265a6.459 6.459 0 01-3.274.066l-6.883-1.646a3.054 3.054 0 00-2.434.444 3.31 3.31 0 00-1.4 2.125c-.348 1.75.678 3.466 2.337 3.906l8.213 2.18c.695.184 1.4.276 2.103.276a8.162 8.162 0 003.103-.616l10.445-4.279h1.48v.483c0 .507.394.918.88.918h5.205c.486 0 .879-.41.879-.918V49.77c0-.507-.393-.918-.879-.918zM63.39 60.075a.849.849 0 00-.32.063l-10.601 4.343a6.453 6.453 0 01-4.132.27l-8.213-2.18c-.744-.198-1.205-.968-1.048-1.753.079-.397.302-.736.628-.954a1.375 1.375 0 011.092-.2l6.884 1.647a8.147 8.147 0 004.956-.368l1.997-.802c.041-.015.082-.03.123-.047 1.766-.712 4.02-1.617 4.504-1.811l.094-.038c.453-.182.68-.713.505-1.186-.174-.474-.683-.71-1.136-.528l-.103.041-4.58 1.84c-.777.263-1.617-.136-1.942-.938l-.024-.059a1.632 1.632 0 01-.006-1.213c.154-.392.445-.698.82-.86l6.85-2.961h5.299v7.694H63.39zm6.852 1.401h-3.448V50.687h3.448v10.79zM35.559 48.468h-1.595V39.89h.243c.65 0 1.299-.163 1.877-.473a.861.861 0 00.079-.048l5.692-3.878a2.285 2.285 0 012.446.238l.411.32-.074.111a9.174 9.174 0 00-1.453 3.975 2.586 2.586 0 00-1.585.794 2.815 2.815 0 00-.776 1.958c0 1.527 1.19 2.769 2.651 2.769h6.507c.359 0 .697.146.95.41.255.267.396.62.396.996 0 .56-.314 1.065-.803 1.288a1.125 1.125 0 01-.156.06c-.005 0-.009.002-.013.004a1.287 1.287 0 01-.374.054h-7.393c-.486 0-.88.41-.88.918 0 .507.394.918.88.918h7.393c.227 0 .45-.026.668-.076.37.05.743.076 1.115.076 4.768 0 8.647-4.051 8.647-9.03 0-4.98-3.88-9.032-8.647-9.032-2.197 0-4.3.874-5.891 2.422l-.521-.407a3.992 3.992 0 00-4.339-.38.861.861 0 00-.079.048l-5.69 3.878c-.322.165-.68.251-1.038.251h-.244v-.332c0-.507-.393-.918-.879-.918H27.88c-.486 0-.879.411-.879.918v12.625c0 .507.393.918.879.918h5.205c.486 0 .88-.411.88-.918v-.043h1.595c.485 0 .879-.411.879-.918 0-.507-.394-.918-.879-.918zm7.023-5.58c0-.25.093-.485.261-.66a.886.886 0 01.304-.208c.048.613.155 1.214.32 1.8-.489-.005-.885-.421-.885-.933zm16.072-1.615c0 3.594-2.536 6.58-5.837 7.111a3.378 3.378 0 00-.117-2.888 1.8 1.8 0 001.013-.537c.348-.363.54-.846.54-1.36V42.24c0-1.06-.827-1.924-1.843-1.924h-1.29a.086.086 0 01-.083-.087v-1.282c0-.048.038-.087.084-.087h1.289c.047 0 .085.039.085.087 0 .507.393.918.878.918.486 0 .88-.41.88-.918 0-.977-.703-1.785-1.608-1.906v-.318c0-.507-.394-.918-.88-.918-.485 0-.878.41-.878.918v.318c-.906.12-1.608.928-1.608 1.906v1.282c0 1.06.826 1.923 1.842 1.923h1.29c.046 0 .084.04.084.088v1.36a.087.087 0 01-.025.062.08.08 0 01-.06.025h-1.29a.086.086 0 01-.083-.087v-.125c0-.507-.394-.918-.88-.918-.485 0-.878.411-.878.918v.125a2 2 0 00.013.22H45.32a7.414 7.414 0 01-.444-2.546 7.44 7.44 0 011.056-3.828 7.33 7.33 0 01.665-.928c1.308-1.55 3.19-2.439 5.168-2.439 3.798 0 6.889 3.228 6.889 7.195zM32.205 49.43h-3.447V38.64h3.448v10.79z" fill="#fff"/><path d="M39.779 48.877a.866.866 0 00-.972-.373.92.92 0 00-.635.807.93.93 0 00.514.91.86.86 0 00.984-.186.959.959 0 00.109-1.158z" fill="#fff"/></svg>