<svg width="100" height="100" fill="none" xmlns="http://www.w3.org/2000/svg"><circle cx="50" cy="50" r="50" fill="#252525"/><g clip-path="url(#clip0_524_4)" fill="#fff"><path d="M71.121 61.508A.879.879 0 0072 60.63v-1.537a6.02 6.02 0 00-3.316-5.371 4.704 4.704 0 001.673-3.597v-1.096a4.718 4.718 0 00-4.713-4.713 4.718 4.718 0 00-4.713 4.713v1.096c0 1.252.492 2.391 1.291 3.236a11.571 11.571 0 00-4.31 1.955l-7.96 5.806c-.164.12-.315.255-.452.401a3.234 3.234 0 00-.453-.401l-7.958-5.806a11.57 11.57 0 00-4.312-1.955 4.695 4.695 0 001.292-3.236v-1.096a4.718 4.718 0 00-4.713-4.713 4.718 4.718 0 00-4.713 4.713v1.096c0 1.44.65 2.731 1.673 3.597A6.019 6.019 0 0027 59.092V71.12c0 .486.394.88.879.88h10.954a.879.879 0 00.879-.88v-8.07l5.75 3.467a3.205 3.205 0 003.27.047 3.34 3.34 0 00.768-.6 3.29 3.29 0 002.364 1.025c.577 0 1.152-.158 1.673-.472l5.75-3.467v8.07c0 .486.395.88.88.88H71.12a.879.879 0 00.879-.88v-3.175a.879.879 0 00-1.758 0v2.296h-9.196v-8.11a.892.892 0 00-.011-.134l.955-.576a.879.879 0 10-.908-1.506l-8.452 5.097a1.467 1.467 0 01-1.497.021 1.467 1.467 0 01-.754-1.292c0-.473.228-.921.61-1.2l7.958-5.806a9.816 9.816 0 015.822-1.898h1.217a4.26 4.26 0 014.256 4.256v1.537c0 .486.394.88.88.88zm-40.72-12.48a2.959 2.959 0 012.955-2.955 2.958 2.958 0 012.955 2.955v1.096a2.958 2.958 0 01-2.955 2.955 2.959 2.959 0 01-2.955-2.955v-1.096zm17.466 16.004a1.468 1.468 0 01-1.497-.021l-8.452-5.097a.879.879 0 10-.908 1.506l.954.575a.9.9 0 00-.01.134v8.111h-9.196V59.092a4.26 4.26 0 014.256-4.255h1.217c2.107 0 4.12.656 5.822 1.897l7.959 5.806c.381.279.61.727.61 1.2 0 .542-.283 1.025-.755 1.292zm20.732-14.908a2.959 2.959 0 01-2.955 2.955 2.958 2.958 0 01-2.955-2.955v-1.096a2.958 2.958 0 012.955-2.955 2.959 2.959 0 012.955 2.955v1.096z"/><path d="M71.742 63.557a.885.885 0 00-1.242 0 .887.887 0 00-.258.621c0 .233.094.458.258.623.163.163.39.257.621.257a.885.885 0 00.621-.257.888.888 0 00.258-.623.885.885 0 00-.258-.62zm-8.439-36.555h-2.9a.879.879 0 000 1.758h.778L50.91 39.03l-6.721-6.72a.879.879 0 00-1.243 0l-6.263 6.262a.879.879 0 001.243 1.243l5.641-5.641 6.721 6.721a.876.876 0 001.243 0l10.893-10.892v.778a.879.879 0 001.758 0v-2.9a.879.879 0 00-.88-.879zM35.707 40.791a.885.885 0 00-.621-.258.885.885 0 00-.621.258.885.885 0 00-.258.621c0 .232.094.458.258.622.163.163.39.257.62.257a.885.885 0 00.622-.257.885.885 0 00.258-.622.883.883 0 00-.258-.621z"/></g><defs><clipPath id="clip0_524_4"><path fill="#fff" transform="translate(27 27)" d="M0 0h45v45H0z"/></clipPath></defs></svg>