<svg width="100" height="100" fill="none" xmlns="http://www.w3.org/2000/svg"><circle cx="50" cy="50" r="50" fill="#252525"/><path d="M59.883 62.578a.899.899 0 100 1.798.899.899 0 000-1.798z" fill="#0BBBEF"/><path d="M62.095 59.673l-4.27-1.423-1.533-3.066a9.84 9.84 0 002.663-5.206l.191-1.146h1.635a2.698 2.698 0 002.696-2.695v-5.66C63.477 33.046 57.43 27 50 27c-7.45 0-13.477 6.028-13.477 13.477v5.66a2.7 2.7 0 001.797 2.54v1.053a2.698 2.698 0 002.696 2.696h.789a9.747 9.747 0 001.903 2.76l-1.533 3.064-4.27 1.423c-4.965 1.656-8.57 6.883-8.57 12.429 0 .496.403.898.9.898h39.53a.899.899 0 00.9-.898c0-5.546-3.605-10.773-8.57-12.43zm-.415-13.536a.9.9 0 01-.899.898h-1.37a58.71 58.71 0 00.44-5.505l.006-.155h1.823v4.762zm-22.461.898a.9.9 0 01-.899-.898v-4.762h1.824l.01.283v.01c.063 1.803.213 3.637.436 5.367h-1.37zm1.797 3.594a.9.9 0 01-.899-.898v-.899h.737l.19 1.146a9.6 9.6 0 00.134.65h-.162zm-.897-11.05h-1.764c.455-6.022 5.48-10.782 11.645-10.782 6.138 0 11.185 4.76 11.645 10.781h-1.764c-.064-4.962-4.105-8.984-9.077-8.984h-1.608c-4.972 0-9.013 4.022-9.077 8.984zm9.077-7.188h1.608c4.026 0 7.284 3.293 7.282 7.314 0 .282-.002.529-.007.753v.009l-1.124-.161a14.436 14.436 0 01-8.117-4.058.899.899 0 00-.635-.264 8.128 8.128 0 00-6.25 2.957c.377-3.658 3.47-6.55 7.243-6.55zM43.04 50.629c-.45-1.496-.965-5.899-1.078-8.72l1.209-1.612a6.324 6.324 0 014.676-2.506 16.251 16.251 0 008.853 4.294l1.323.189a55.31 55.31 0 01-.529 5.493c-.082.556-.147.915-.312 1.915-.476 2.854-2.606 5.435-5.417 6.138a7.308 7.308 0 01-3.532 0c-1.755-.439-3.364-1.653-4.403-3.394h1.831a2.7 2.7 0 002.541 1.797H50a2.695 2.695 0 100-5.391h-1.797a2.697 2.697 0 00-2.542 1.797h-2.62zm5.087 7.01a9.09 9.09 0 003.341.074l-1.587 1.68-1.754-1.755zm.519 3.06l-2.85 3.013a34.228 34.228 0 01-2.012-4.664l1.07-2.14 3.792 3.79zm6.345-4.096l1.223 2.444a34.223 34.223 0 01-2.012 4.666l-3.05-3.05 3.84-4.06zm-7.687-5.076c0-.496.402-.898.898-.898H50a.9.9 0 010 1.797h-1.797a.9.9 0 01-.898-.899zM31.169 71.203c.356-4.45 3.318-8.496 7.304-9.826l3.782-1.26a36.03 36.03 0 002.557 5.547l.005.01a36.002 36.002 0 002.46 3.755l1.105 1.774H31.169zm18.831-.8l-1.218-1.957a.923.923 0 00-.044-.064 34.236 34.236 0 01-2.024-3.024l3.204-3.389 3.376 3.377a34.216 34.216 0 01-2.032 3.036c-.044.059.019-.034-1.262 2.02zm1.618.8l1.105-1.774a36.029 36.029 0 002.477-3.785l.013-.024.002-.003a35.983 35.983 0 002.53-5.5l3.782 1.26c3.986 1.33 6.948 5.375 7.304 9.826H51.618z" fill="#0BBBEF"/><path d="M66.131 67.567a8.982 8.982 0 00-2.543-3.087.898.898 0 10-1.096 1.424 7.175 7.175 0 012.032 2.466.899.899 0 001.607-.803z" fill="#0BBBEF"/></svg>